<svg
  xmlns="http://www.w3.org/2000/svg"
  xmlns:xlink="http://www.w3.org/1999/xlink"
  version="1.1"
  x="0px"
  y="0px"
  viewBox="0 0 100 100"
  style="enable-background:new 0 0 100 100;"
  xml:space="preserve"
>
  <path
    d="M11.132,87.93c-0.552,0-1,0.448-1,1s0.448,1,1,1h78c0.552,0,1-0.448,1-1s-0.448-1-1-1H77.757v-6.414  c0.402,0.036,0.928,0.069,1.541,0.069c2.158,0,5.326-0.406,7.404-2.485c3.34-3.34,2.363-9.49,2.32-9.75  c-0.07-0.422-0.4-0.752-0.822-0.822c-0.26-0.043-6.41-1.021-9.75,2.319c-0.259,0.259-0.483,0.538-0.692,0.826v-9.771  c0.402,0.036,0.928,0.069,1.541,0.069c2.158,0,5.326-0.406,7.404-2.485c3.34-3.34,2.363-9.49,2.32-9.75  c-0.07-0.422-0.4-0.752-0.822-0.822c-0.26-0.044-6.41-1.021-9.75,2.319c-0.259,0.259-0.483,0.538-0.692,0.826v-9.771  c0.402,0.036,0.928,0.069,1.541,0.069c2.158,0,5.326-0.406,7.404-2.485c3.34-3.341,2.363-9.49,2.32-9.75  c-0.07-0.422-0.4-0.752-0.822-0.822c-0.26-0.043-6.41-1.021-9.75,2.319c-0.259,0.259-0.483,0.538-0.692,0.826v-5.583  c1.243-0.996,4.835-4.218,4.835-8.212c0-4.724-5.04-8.381-5.254-8.534c-0.348-0.249-0.815-0.249-1.163,0  c-0.214,0.153-5.254,3.81-5.254,8.534c0,3.994,3.593,7.216,4.836,8.212v14.363c-0.216-0.301-0.447-0.593-0.716-0.862  c-3.341-3.34-9.491-2.364-9.75-2.319c-0.422,0.07-0.752,0.4-0.822,0.822c-0.043,0.26-1.021,6.41,2.319,9.75  c2.079,2.079,5.246,2.485,7.404,2.485c0.624,0,1.16-0.034,1.565-0.071v9.809c-0.216-0.301-0.447-0.593-0.716-0.862  c-3.341-3.341-9.491-2.364-9.75-2.319c-0.422,0.07-0.752,0.4-0.822,0.822c-0.043,0.26-1.021,6.41,2.319,9.75  c2.079,2.079,5.246,2.485,7.404,2.485c0.624,0,1.16-0.034,1.565-0.071V87.93H51.019v-6.414c0.402,0.036,0.928,0.069,1.541,0.069  c2.158,0,5.326-0.406,7.404-2.485c3.34-3.34,2.363-9.49,2.319-9.75c-0.07-0.422-0.4-0.752-0.822-0.822  c-0.26-0.043-6.409-1.021-9.75,2.319c-0.258,0.258-0.483,0.538-0.692,0.826v-9.771c0.402,0.036,0.928,0.069,1.541,0.069  c2.158,0,5.326-0.406,7.404-2.485c3.34-3.34,2.363-9.49,2.319-9.75c-0.07-0.422-0.4-0.752-0.822-0.822  c-0.26-0.044-6.409-1.021-9.75,2.319c-0.258,0.258-0.483,0.538-0.692,0.826V37.141c1.243-0.996,4.835-4.218,4.835-8.212  c0-4.724-5.04-8.381-5.254-8.535c-0.348-0.249-0.815-0.249-1.163,0c-0.214,0.153-5.254,3.811-5.254,8.535  c0,3.994,3.593,7.216,4.836,8.212v4.084c-0.216-0.301-0.447-0.593-0.716-0.862c-3.341-3.34-9.491-2.364-9.75-2.319  c-0.422,0.07-0.752,0.4-0.822,0.822c-0.043,0.26-1.021,6.41,2.319,9.75c2.079,2.079,5.246,2.485,7.404,2.485  c0.624,0,1.16-0.034,1.565-0.071v9.809c-0.216-0.301-0.447-0.593-0.716-0.862c-3.341-3.341-9.491-2.364-9.75-2.319  c-0.422,0.07-0.752,0.4-0.822,0.822c-0.043,0.26-1.021,6.41,2.319,9.75c2.079,2.079,5.246,2.485,7.404,2.485  c0.624,0,1.16-0.034,1.565-0.071V87.93H24.28v-6.414c0.402,0.036,0.928,0.069,1.541,0.069c2.158,0,5.326-0.406,7.404-2.485  c3.34-3.34,2.363-9.49,2.319-9.75c-0.07-0.422-0.4-0.752-0.822-0.822c-0.259-0.043-6.41-1.021-9.75,2.319  c-0.259,0.259-0.483,0.538-0.692,0.827v-9.772c0.402,0.036,0.928,0.069,1.541,0.069c2.158,0,5.326-0.406,7.404-2.485  c3.34-3.34,2.363-9.49,2.319-9.75c-0.07-0.422-0.4-0.752-0.822-0.822c-0.259-0.044-6.41-1.021-9.75,2.319  c-0.259,0.259-0.483,0.538-0.692,0.827v-9.772c0.402,0.036,0.928,0.069,1.541,0.069c2.158,0,5.326-0.406,7.404-2.485  c3.34-3.341,2.363-9.49,2.319-9.75c-0.07-0.422-0.4-0.752-0.822-0.822c-0.259-0.043-6.41-1.021-9.75,2.319  c-0.259,0.259-0.483,0.538-0.692,0.827v-5.583c1.243-0.996,4.836-4.218,4.836-8.212c0-4.724-5.04-8.381-5.254-8.534  c-0.348-0.249-0.815-0.249-1.163,0c-0.214,0.153-5.254,3.81-5.254,8.534c0,3.994,3.592,7.216,4.835,8.212v14.363  c-0.216-0.301-0.447-0.593-0.716-0.862c-3.341-3.34-9.491-2.364-9.75-2.319c-0.422,0.07-0.752,0.4-0.822,0.822  c-0.043,0.26-1.021,6.41,2.32,9.75c2.079,2.079,5.246,2.485,7.404,2.485c0.624,0,1.16-0.034,1.564-0.071v9.809  c-0.216-0.301-0.447-0.593-0.716-0.862c-3.341-3.341-9.491-2.364-9.75-2.319c-0.422,0.07-0.752,0.4-0.822,0.822  c-0.043,0.26-1.021,6.41,2.32,9.75c2.079,2.079,5.246,2.485,7.404,2.485c0.624,0,1.16-0.034,1.564-0.071V87.93H11.132z   M79.864,72.261c2.026-2.026,5.704-1.972,7.27-1.843c0.132,1.565,0.189,5.234-1.845,7.268c-2.026,2.025-5.701,1.973-7.268,1.843  C77.891,77.961,77.838,74.287,79.864,72.261z M79.864,52.647c2.026-2.026,5.704-1.972,7.27-1.843  c0.132,1.565,0.189,5.234-1.845,7.268c-2.027,2.027-5.702,1.972-7.27,1.843C77.887,58.35,77.829,54.682,79.864,52.647z   M79.864,33.033c2.026-2.025,5.7-1.972,7.268-1.843c0.129,1.568,0.182,5.242-1.844,7.268c-2.027,2.027-5.702,1.972-7.27,1.843  C77.887,38.736,77.829,35.068,79.864,33.033z M75.47,49.047c-1.566,0.133-5.233,0.189-7.268-1.845  c-2.026-2.026-1.973-5.703-1.843-7.27c1.565-0.133,5.234-0.189,7.268,1.845C75.653,43.804,75.6,47.48,75.47,49.047z M75.47,68.661  c-1.566,0.132-5.233,0.189-7.268-1.845c-2.026-2.026-1.973-5.703-1.843-7.27c1.565-0.134,5.234-0.189,7.268,1.845  C75.653,63.418,75.6,67.094,75.47,68.661z M72.921,18.65c0-2.865,2.636-5.425,3.836-6.442c1.2,1.017,3.835,3.578,3.835,6.442  c0,2.854-2.615,5.406-3.822,6.431c-0.005,0-0.009-0.003-0.014-0.003c-0.006,0-0.011,0.003-0.016,0.003  C75.535,24.06,72.921,21.517,72.921,18.65z M53.125,72.261c2.027-2.027,5.706-1.971,7.27-1.843c0.132,1.565,0.189,5.233-1.845,7.268  c-2.026,2.025-5.701,1.973-7.268,1.843C51.152,77.961,51.1,74.287,53.125,72.261z M53.125,52.647  c2.027-2.027,5.706-1.972,7.27-1.843c0.132,1.565,0.189,5.233-1.845,7.268c-2.027,2.027-5.702,1.972-7.27,1.843  C51.148,58.35,51.091,54.682,53.125,52.647z M48.732,49.047c-1.565,0.133-5.234,0.189-7.268-1.845  c-2.026-2.026-1.973-5.7-1.843-7.268c1.566-0.129,5.242-0.182,7.268,1.843C48.915,43.804,48.861,47.48,48.732,49.047z   M48.732,68.661c-1.565,0.132-5.234,0.189-7.268-1.845c-2.026-2.026-1.973-5.7-1.843-7.268c1.566-0.129,5.242-0.183,7.268,1.843  C48.915,63.418,48.861,67.094,48.732,68.661z M46.183,28.93c0-2.865,2.636-5.426,3.836-6.443c1.2,1.017,3.835,3.578,3.835,6.443  s-2.635,5.425-3.835,6.442C48.819,34.355,46.183,31.794,46.183,28.93z M26.387,72.261c2.027-2.026,5.704-1.972,7.27-1.843  c0.132,1.565,0.189,5.233-1.845,7.268c-2.027,2.025-5.701,1.973-7.268,1.843C24.414,77.961,24.361,74.287,26.387,72.261z   M26.387,52.647c2.027-2.026,5.704-1.972,7.27-1.843c0.132,1.565,0.189,5.233-1.845,7.268c-2.027,2.027-5.703,1.972-7.27,1.843  C24.41,58.35,24.353,54.682,26.387,52.647z M26.387,33.033c2.026-2.026,5.701-1.972,7.268-1.843  c0.129,1.568,0.183,5.242-1.843,7.268c-2.027,2.027-5.703,1.972-7.27,1.843C24.41,38.736,24.353,35.068,26.387,33.033z   M21.994,49.047c-1.566,0.133-5.233,0.189-7.268-1.845c-2.026-2.026-1.973-5.703-1.844-7.27c1.565-0.133,5.233-0.189,7.268,1.845  C22.177,43.804,22.123,47.48,21.994,49.047z M21.994,68.661c-1.566,0.132-5.233,0.189-7.268-1.845  c-2.026-2.026-1.973-5.703-1.844-7.27c1.565-0.134,5.233-0.189,7.268,1.845C22.177,63.418,22.123,67.094,21.994,68.661z   M19.445,18.65c0-2.865,2.635-5.425,3.835-6.442c1.2,1.017,3.836,3.578,3.836,6.442c0,2.854-2.616,5.406-3.822,6.431  c-0.005,0-0.009-0.003-0.014-0.003s-0.009,0.003-0.014,0.003C22.06,24.056,19.445,21.505,19.445,18.65z"
    stroke="#fff"
    fill="#fff"
  />
</svg>
